<svg xmlns="http://www.w3.org/2000/svg" viewBox="0 0 205 46"><path d="M7.563 45.656c.875 0 1.635-.255 2.28-.765A6.244 6.244 0 0011.439 43c.416-.75.729-1.557.937-2.422.208-.864.313-1.661.313-2.39v-.157c0-.208-.01-.474-.032-.797-.02-.323-.036-.64-.047-.953-.01-.312-.02-.583-.03-.812l-.017-.344-1.218-6.094c0-.02-.005-.078-.016-.172a1.345 1.345 0 01.297-1.063c.208-.26.448-.515.719-.765.27-.25.541-.49.812-.718.271-.23.469-.49.594-.782.542-.708.927-1.265 1.156-1.672.23-.406.36-.703.39-.89.032-.188-.015-.287-.14-.297-.125-.01-.286.031-.484.125a4.98 4.98 0 00-.625.36c-.219.145-.412.27-.578.374h-.219c-.146 0-.26-.01-.344-.031-.083-.02-.198-.104-.344-.25h-1.108a26.042 26.042 0 01-.595-.016c-.302-.01-.557.047-.765.172L9.03 12.094a5.615 5.615 0 00-.328-1.188 4.688 4.688 0 00-.594-1.078 3.126 3.126 0 00-.859-.797 2.024 2.024 0 00-1.094-.312c-.812.02-1.51.172-2.093.453a4.629 4.629 0 00-1.5 1.14 6.785 6.785 0 00-1.047 1.641 13.197 13.197 0 00-.704 1.922 18.809 18.809 0 00-.453 2.047c-.114.698-.213 1.36-.296 1.984 0 1.021.145 2.146.437 3.375.292 1.23.703 2.38 1.234 3.453.532 1.073 1.183 1.964 1.954 2.672.77.709 1.645 1.063 2.624 1.063.48 0 .948-.032 1.407-.094.458-.063.927-.094 1.406-.094h.125a31.29 31.29 0 01-1.89 2.844 49.626 49.626 0 00-1.97 2.844 16.966 16.966 0 00-1.53 3c-.407 1.041-.61 2.166-.61 3.375 0 .604.094 1.218.281 1.843.188.626.464 1.193.828 1.704.365.51.813.932 1.344 1.265.531.334 1.151.5 1.86.5zm.265-18.718c-.281.02-.552.02-.812 0a8.028 8.028 0 00-.547-.032c-.938 0-1.709-.312-2.313-.937-.604-.625-1.083-1.407-1.437-2.344a14.337 14.337 0 01-.766-3.047 21.636 21.636 0 01-.234-3.047c0-.541.057-1.224.172-2.047a9.97 9.97 0 01.625-2.359 6.284 6.284 0 011.203-1.938c.5-.541 1.135-.812 1.906-.812.23 0 .443.068.64.203.199.136.37.302.516.5.146.198.271.412.375.64.104.23.177.46.219.688l1.531 13.75v.125c0 .042.005.068.016.078.01.01.015.026.015.047 0 .188-.114.318-.343.39-.23.074-.485.12-.766.142zm2.922-.907a.152.152 0 01-.078-.031.152.152 0 00-.078-.031c0-.063-.021-.162-.063-.297a4.144 4.144 0 01-.11-.453 11.246 11.246 0 00-.093-.453 1.492 1.492 0 01-.047-.297.218.218 0 00-.015-.094.139.139 0 01-.016-.063h.188c.062 0 .161.01.296.032.136.02.271.031.407.031.135 0 .27.01.406.031.135.021.224.042.265.063.105.02.162.073.172.156.01.083.016.167.016.25 0 .104-.047.224-.14.36-.094.135-.214.26-.36.374a4.532 4.532 0 01-.422.297c-.135.084-.245.125-.328.125zM7.469 44.125c-.417 0-.787-.12-1.11-.36a3.522 3.522 0 01-.843-.906 4.453 4.453 0 01-.547-1.172 4.044 4.044 0 01-.188-1.156c0-.604.073-1.192.219-1.765a12.33 12.33 0 01.563-1.688c.229-.552.49-1.088.78-1.61.292-.52.595-1.03.907-1.53.104-.209.281-.5.531-.876.25-.374.51-.75.782-1.124l.718-1c.209-.292.344-.47.406-.532l.126-.125c.187.709.348 1.365.484 1.969.135.604.245 1.208.328 1.813.083.604.151 1.213.203 1.828.052.614.078 1.276.078 1.984 0 .48-.041 1.078-.125 1.797a8.093 8.093 0 01-.515 2.062 5.316 5.316 0 01-1.047 1.688c-.438.469-1.021.703-1.75.703zm9.32-15.094c.563 0 1.115-.114 1.657-.343.541-.23 1.072-.5 1.593-.813a14.72 14.72 0 001.5-1.031c.48-.375.927-.73 1.344-1.063-.042.396-.036.776.016 1.14.052.365.15.678.297.938.145.26.364.47.656.625.291.157.666.235 1.125.235.291 0 .62-.037.984-.11a9.238 9.238 0 001.11-.297c.375-.125.74-.255 1.093-.39.354-.136.677-.287.969-.453a7.84 7.84 0 00.828-.407c.386-.208.797-.427 1.235-.656.437-.229.848-.437 1.234-.625.385-.187.651-.333.797-.437.104-.084.161-.172.172-.266a2.69 2.69 0 00.015-.297.648.648 0 00-.203-.5.73.73 0 00-.515-.187.658.658 0 00-.11.015l-.047.01a.418.418 0 01-.062.006l-5.938 2.75c-.208.083-.411.13-.61.14-.197.011-.4.016-.608.016-.042 0-.146-.005-.313-.015a7.135 7.135 0 00-.312-.016 1.769 1.769 0 01-.079-.36l-.018-.109a1.202 1.202 0 00-.06-.25v-.187c0-.563.058-1.1.172-1.61.115-.51.24-1.026.375-1.547l.132-.519c.086-.345.167-.687.243-1.027.115-.51.172-1.037.172-1.578 0-.396-.036-.792-.11-1.188a3.38 3.38 0 00-.374-1.063 2.2 2.2 0 00-.72-.765c-.301-.198-.681-.297-1.14-.297h-.562a8.25 8.25 0 00-3.453 1.203 8.805 8.805 0 00-2.594 2.438 8.914 8.914 0 00-1.406 3.265c-.26 1.209-.214 2.438.14 3.688v.968c.104.334.282.579.532.735.25.156.53.234.843.234zm.313-1.625v-.843l.75-3.657c.02-.062.057-.14.11-.234.051-.094.114-.193.187-.297.073-.104.14-.193.203-.266.062-.073.104-.109.125-.109.104-.104.297-.302.578-.594l.906-.937c.323-.334.63-.64.922-.922.292-.281.5-.474.625-.578.042-.021.13-.032.266-.032h.265c.313 0 .563.021.75.063.188.042.417.177.688.406 0 .042.005.104.015.188.01.083.016.146.016.187a6.68 6.68 0 01-.234 1.766 7.793 7.793 0 00-.266 1.797c-.25.375-.604.797-1.062 1.265-.459.47-.97.912-1.532 1.328-.562.417-1.135.766-1.718 1.047-.584.282-1.115.422-1.594.422zm22.727 1.469c.291 0 .713-.094 1.265-.281a16.911 16.911 0 001.813-.75 34.178 34.178 0 002.015-1.047 21.693 21.693 0 001.875-1.172 9.082 9.082 0 001.375-1.156c.354-.375.532-.688.532-.938 0-.062-.01-.156-.032-.281-.02-.125-.062-.188-.125-.188h-.937c-.167.125-.323.25-.469.375-.292.23-.542.407-.75.532-.125.083-.255.172-.39.265a1.087 1.087 0 00-.329.36l-2.75 1.687c-.229.042-.448.11-.656.203-.208.094-.422.193-.64.297-.22.104-.433.198-.641.282a1.835 1.835 0 01-.688.125 3.63 3.63 0 01-.328-.016c-.114-.01-.161-.11-.14-.297v-.813c0-.416.046-.88.14-1.39l.281-1.531.282-1.516c.093-.5.14-.948.14-1.344 0-.437-.078-.776-.234-1.015-.156-.24-.422-.464-.797-.672a8.864 8.864 0 00-1.156-.469c-.438-.146-.85-.281-1.235-.406-.385-.125-.708-.24-.968-.344-.26-.104-.38-.198-.36-.281a.723.723 0 00-.53.218c-.147.146-.272.318-.376.516a2.611 2.611 0 00-.234.64c-.052.23-.078.428-.078.595 0 .166.005.307.015.421.01.115.057.245.14.391a9.76 9.76 0 00-.5 1.547c-.103.469-.239.911-.405 1.328-.167.417-.391.833-.672 1.25-.282.417-.714.844-1.297 1.281-.021.375-.01.662.031.86.042.198.099.343.172.437a.454.454 0 00.219.172c.073.02.12.031.14.031.813-.562 1.39-1.135 1.735-1.718a8.067 8.067 0 00.78-1.75c.178-.584.355-1.146.532-1.688.177-.542.495-1.052.953-1.531 0 .02.151.099.453.234.303.136.63.292.985.469.354.177.682.338.984.484.302.146.453.23.453.25 0 .25-.073.584-.218 1-.146.417-.313.844-.5 1.282-.188.437-.355.864-.5 1.28-.146.417-.22.74-.22.97 0 .312.027.63.079.953.052.323.151.62.297.89.146.271.333.5.562.688.23.187.532.281.907.281zm12.57.156c.354 0 .787-.041 1.297-.125.51-.083 1.047-.208 1.61-.375.562-.166 1.13-.375 1.702-.625a8.253 8.253 0 001.532-.86 4.541 4.541 0 001.093-1.093c.282-.406.422-.838.422-1.297 0-.166-.02-.333-.062-.5-.042-.166-.167-.25-.375-.25a.915.915 0 00-.594.235 3.79 3.79 0 00-.531.547c-.167.208-.328.411-.485.609a5.39 5.39 0 01-.39.453 7.25 7.25 0 01-2.469 1.313 9.666 9.666 0 01-3.734.359 1.778 1.778 0 01-.75-.25 1.446 1.446 0 01-.516-.547c-.125-.23-.187-.531-.187-.906v-.063c0-.062.02-.166.062-.312.042-.146.073-.25.094-.313a32.438 32.438 0 001.781-1.61c.52-.51.964-1.056 1.328-1.64a6.749 6.749 0 00.813-1.906c.177-.688.265-1.48.265-2.375 0-.083-.005-.234-.015-.453a11.33 11.33 0 01-.016-.453 4.012 4.012 0 00-.297-.64c-.114-.199-.307-.298-.578-.298-.73 0-1.338.162-1.828.485-.49.323-.89.734-1.203 1.234A6.75 6.75 0 0049.633 19a34.086 34.086 0 00-.453 1.625c-.041.125-.099.36-.172.703a30.832 30.832 0 01-.734 2.797l-.156 2.156c.27 1.104.776 1.839 1.515 2.203.74.365 1.662.547 2.766.547zm-1.844-6.75c.105-.5.203-.937.297-1.312.094-.375.209-.724.344-1.047a4 4 0 01.562-.938c.24-.302.568-.64.985-1.015-.042.5-.104.942-.188 1.328a4.55 4.55 0 01-.375 1.078c-.166.333-.38.656-.64.969-.26.312-.589.625-.985.937zm22.07 6.75c.25 0 .595-.031 1.032-.093.438-.063.912-.167 1.422-.313.51-.146 1.02-.313 1.531-.5a8.75 8.75 0 001.407-.656c.427-.25.776-.521 1.046-.813.271-.291.407-.604.407-.937 0-.042-.006-.104-.016-.188a1.658 1.658 0 01-.016-.187.663.663 0 00-.437-.157.218.218 0 00-.094.016.218.218 0 01-.094.016 9.602 9.602 0 01-2.875 1.672 9.282 9.282 0 01-3.28.609c-.5 0-.907-.11-1.22-.328a2.267 2.267 0 01-.734-.86 3.857 3.857 0 01-.36-1.187 9.27 9.27 0 01-.093-1.313c0-.958.088-1.885.266-2.78a13.97 13.97 0 01.828-2.688l1.687-10.219c.063-.354.005-.646-.172-.875-.177-.23-.422-.344-.734-.344-.25 0-.469.146-.656.438a3.84 3.84 0 00-.453 1.062 7.562 7.562 0 00-.235 1.235c-.042.406-.042.724 0 .953L69.22 17.28a4.113 4.113 0 00-.766-.562 1.791 1.791 0 00-.89-.219h-.438c-.042.02-.177.073-.406.156l-.107.04c-.165.06-.265.1-.3.116-.833.167-1.557.344-2.171.532a4.469 4.469 0 00-1.579.828 4.498 4.498 0 00-1.093 1.375c-.292.552-.552 1.265-.782 2.14l-.437 2.282v3.375c0 .396.182.703.547.922.364.218.713.328 1.047.328.208 0 .364-.026.468-.078l.16-.08.23-.115.142-.071c.145-.083.349-.193.609-.328.26-.136.516-.281.766-.438a23.508 23.508 0 011.03-.609c.126-.083.334-.245.626-.484.292-.24.599-.5.922-.782.323-.28.63-.547.922-.797.291-.25.49-.427.593-.53h.157c.083.666.208 1.286.375 1.859a4.77 4.77 0 00.734 1.515c.323.438.73.776 1.219 1.016.49.24 1.099.36 1.828.36zm-10.75-2.125c0-.041.006-.146.017-.312.01-.167.015-.271.015-.313.021-.146.047-.37.078-.672.032-.302.063-.625.094-.968.031-.344.063-.662.094-.953.031-.292.047-.5.047-.625-.084-.605.03-1.198.343-1.782a5.637 5.637 0 011.22-1.547 5.174 5.174 0 011.609-1c.572-.218 1.078-.255 1.515-.109.146 0 .318.063.516.188s.396.27.594.437c.197.167.375.344.53.531.157.188.235.334.235.438 0 .333-.135.734-.406 1.203-.27.469-.61.943-1.016 1.422s-.87.963-1.39 1.453c-.521.49-1.032.927-1.532 1.312-.5.386-.979.698-1.437.938-.458.24-.833.36-1.125.36zm50.548 2.125c.709 0 1.323-.192 1.844-.578.52-.385.969-.864 1.344-1.437a8.84 8.84 0 00.922-1.86c.24-.666.432-1.27.578-1.812.041-.209.11-.505.203-.89.094-.386.182-.772.265-1.157.084-.386.157-.735.22-1.047.062-.313.093-.5.093-.563v-.28c0-.084.026-.282.078-.595.052-.312.125-.682.219-1.109.094-.427.203-.9.328-1.422.125-.52.25-1.026.375-1.515.125-.49.245-.943.36-1.36.114-.416.213-.76.296-1.031a39.558 39.558 0 01.781-2.11c.188-.468.386-.958.594-1.468.209-.51.412-1 .61-1.469.198-.469.375-.89.53-1.266.157-.375.277-.645.36-.812.021-.02.031-.063.031-.125V5a.673.673 0 00-.218-.516.752.752 0 00-.532-.203c-.104 0-.213.01-.328.032a.55.55 0 00-.297.156c-.895 2.104-2.046 3.838-3.453 5.203-1.406 1.364-3.15 2.474-5.234 3.328-.333.125-.646.26-.938.406a2.136 2.136 0 01-.968.219h-.25c.104-.125.224-.281.36-.469.135-.187.27-.38.405-.578.136-.198.26-.39.375-.578.115-.188.193-.365.235-.531l2.437-5.938c.209-.479.344-.958.406-1.437.063-.48.094-.969.094-1.469 0-.188-.015-.385-.047-.594a2.071 2.071 0 00-.172-.578 1.342 1.342 0 00-.343-.453c-.146-.125-.344-.188-.594-.188-.5 0-1.016.13-1.547.391a5.798 5.798 0 00-1.453 1.016c-.438.416-.823.88-1.156 1.39-.334.51-.552.995-.657 1.454l-1.843 7.625v.218c0 .188.031.37.093.547.063.177.136.354.22.531.083.177.155.35.218.516.062.167.094.323.094.469a.707.707 0 01-.157.469c-.041.062-.12.161-.234.296a87.09 87.09 0 01-.36.422c-.124.146-.244.282-.359.407a1.712 1.712 0 01-.265.25h-.782c-.895 0-1.755-.058-2.578-.172-.823-.115-1.734-.256-2.734-.422-.27-.146-.48-.24-.625-.282a2.097 2.097 0 00-.563-.062c-.333 0-.572.057-.718.172-.146.114-.219.349-.219.703v.344a87.645 87.645 0 001.766 2.281 47.67 47.67 0 011.734 2.313c-.208.187-.505.442-.89.765-.386.323-.808.672-1.266 1.047-.459.375-.933.76-1.422 1.156-.49.396-.927.782-1.313 1.157-.385.375-.708.718-.968 1.03-.26.313-.391.553-.391.72 0 .27.135.473.406.609.271.135.521.203.75.203.125 0 .271-.078.438-.234.166-.157.328-.339.484-.547l.422-.563c.125-.166.208-.27.25-.312l.781-.672c.375-.323.771-.662 1.188-1.016l.41-.349.777-.666.781-.672c.042-.042.125-.094.25-.157l.157-.078.093-.047.063-.03.016.015c.01.01.026.015.046.015.584.73 1.25 1.454 2 2.172.75.72 1.563 1.36 2.438 1.922a13.504 13.504 0 002.75 1.36 8.552 8.552 0 002.906.515zm-3.687-15.593h-.188v-.547c0-.24.01-.49.031-.75.021-.26.042-.506.063-.735.02-.229.052-.406.094-.531l1.375-5.344a3.09 3.09 0 01.375-.984c.187-.323.411-.615.672-.875.26-.26.546-.48.859-.656a1.996 1.996 0 011-.266c0 1.042-.135 2.02-.406 2.938a18.31 18.31 0 01-1.032 2.687c-.416.875-.88 1.73-1.39 2.563-.51.833-.995 1.666-1.453 2.5zm3.593 14.03c-.791 0-1.567-.14-2.328-.421-.76-.281-1.49-.656-2.187-1.125-.698-.469-1.36-.98-1.985-1.531a23.17 23.17 0 01-1.687-1.641 1.066 1.066 0 01-.219-.219l-.25-.312a6.322 6.322 0 01-.203-.266l-.059-.082-.019-.027 3.187-3.5c.105 0 .26-.01.47-.032.208-.02.437-.041.687-.062a20.9 20.9 0 011.125-.063c.146-.02.312-.078.5-.171a.473.473 0 00.281-.453.455.455 0 00-.25-.422 1.642 1.642 0 00-.578-.188 2.536 2.536 0 00-.625-.015c-.198.02-.328.03-.39.03.04-.04.103-.124.187-.25.083-.124.177-.244.281-.359.104-.114.198-.234.281-.359.084-.125.146-.208.188-.25a.89.89 0 01.156-.188l.125-.124 1.844-.313c.083-.02.281-.089.593-.203.313-.115.672-.255 1.079-.422.406-.167.812-.328 1.218-.484.407-.157.714-.287.922-.391.23-.125.5-.276.813-.453.312-.177.625-.37.937-.578.313-.209.625-.427.938-.656.312-.23.583-.438.812-.626-.187.605-.354 1.152-.5 1.641-.146.49-.286.953-.422 1.39-.135.438-.25.876-.343 1.313-.094.438-.183.917-.266 1.438v.187l-1.188 5.625c-.229.313-.421.73-.578 1.25-.156.521-.328 1.026-.515 1.516-.188.49-.438.911-.75 1.265-.313.355-.74.532-1.282.532zm-9.937-6.75l-1.906-2.53c.041-.021.12-.047.234-.079.115-.03.193-.057.234-.078h.094c.25 0 .537.016.86.047a29 29 0 00.984.078c.333.021.646.052.937.094.292.042.553.073.782.094v.125l-2.219 2.25zm26.352 8.313c.354 0 .786-.041 1.297-.125.51-.083 1.047-.208 1.609-.375.563-.166 1.13-.375 1.703-.625a8.253 8.253 0 001.531-.86 4.541 4.541 0 001.094-1.093c.281-.406.422-.838.422-1.297 0-.166-.02-.333-.063-.5-.041-.166-.166-.25-.374-.25a.915.915 0 00-.594.235 3.79 3.79 0 00-.531.547c-.167.208-.329.411-.485.609a5.39 5.39 0 01-.39.453 7.25 7.25 0 01-2.47 1.313 9.666 9.666 0 01-3.734.359 1.778 1.778 0 01-.75-.25 1.446 1.446 0 01-.515-.547c-.125-.23-.188-.531-.188-.906v-.063c0-.062.021-.166.063-.312.041-.146.073-.25.094-.313a32.438 32.438 0 001.78-1.61c.522-.51.964-1.056 1.329-1.64a6.749 6.749 0 00.812-1.906c.177-.688.266-1.48.266-2.375 0-.083-.005-.234-.016-.453l-.005-.123a8.647 8.647 0 01-.01-.33 4.012 4.012 0 00-.297-.64c-.115-.199-.307-.298-.578-.298-.73 0-1.339.162-1.828.485-.49.323-.891.734-1.203 1.234a6.75 6.75 0 00-.735 1.625 34.087 34.087 0 00-.453 1.625c-.042.125-.099.36-.172.703a30.833 30.833 0 01-.734 2.797l-.156 2.156c.27 1.104.776 1.839 1.515 2.203.74.365 1.662.547 2.766.547zm-1.844-6.75c.104-.5.203-.937.297-1.312.094-.375.208-.724.344-1.047a4 4 0 01.562-.938c.24-.302.568-.64.984-1.015-.041.5-.104.942-.187 1.328a4.55 4.55 0 01-.375 1.078c-.167.333-.38.656-.64.969-.261.312-.59.625-.985.937zM139.47 15c.25 0 .506-.115.766-.344.26-.229.39-.479.39-.75 0-.27-.093-.442-.28-.515a1.542 1.542 0 00-.563-.11c-.375 0-.635.063-.781.188-.146.125-.219.375-.219.75 0 .208.052.39.156.547.104.156.282.234.532.234zm-.656 14.031c.584 0 1.172-.093 1.766-.281a11.856 11.856 0 001.734-.703 14.429 14.429 0 001.61-.938 30 30 0 001.422-1.015c0-.021.015-.047.046-.078l.079-.078a.61.61 0 00.171-.079.61.61 0 01.172-.078c.063-.02.157-.078.282-.172.125-.093.26-.198.406-.312.146-.115.286-.224.422-.328.135-.104.213-.188.234-.25a.414.414 0 00.172-.282c.01-.104.016-.218.016-.343 0-.292-.089-.495-.266-.61-.177-.114-.401-.172-.672-.172-.208 0-.36.037-.453.11a1.063 1.063 0 00-.234.25c-.063.094-.13.193-.204.297a1.36 1.36 0 01-.328.312c-.396.271-.838.589-1.328.953-.49.365-1 .698-1.531 1-.531.302-1.073.563-1.625.782a4.43 4.43 0 01-1.64.328c-.105 0-.188-.058-.25-.172a1.163 1.163 0 01-.126-.406 3.543 3.543 0 01-.031-.47v-.358c0-.667.078-1.256.234-1.766.157-.51.329-.99.516-1.438.188-.448.36-.895.516-1.343.156-.448.234-.943.234-1.485a1.95 1.95 0 00-.156-.812c-.104-.23-.323-.344-.656-.344-.313 0-.527.052-.641.156-.115.104-.234.323-.36.657A53.505 53.505 0 00137.8 21c-.115.313-.224.604-.328.875a4.21 4.21 0 00-.188.563l-.437 2.78c0 .355.01.75.03 1.188.022.438.095.854.22 1.25s.317.724.578.985c.26.26.64.39 1.14.39zm13.07-.64c.542.114 1.126.109 1.75-.016.188 0 .569-.104 1.141-.313a19.309 19.309 0 001.797-.765 10.38 10.38 0 001.657-.985c.479-.354.718-.687.718-1a.707.707 0 00-.156-.468.538.538 0 00-.437-.188c-.188 0-.47.094-.844.282-.375.187-.755.4-1.14.64-.386.24-.761.453-1.126.64-.364.188-.64.282-.828.282-.354 0-.724-.02-1.11-.063a4.415 4.415 0 01-1.046-.234 1.921 1.921 0 01-.797-.547c-.219-.25-.328-.583-.328-1v-.062c.02-.084.047-.219.078-.407a3.01 3.01 0 01.078-.375 20.041 20.041 0 002.266-2.328 16.267 16.267 0 001.86-2.765c.52-.98.931-2.005 1.233-3.078.303-1.073.454-2.151.454-3.235 0-.125-.01-.27-.032-.437a1.925 1.925 0 00-.11-.453.936.936 0 00-.25-.36.648.648 0 00-.452-.156c-.354 0-.74.161-1.156.484a9.934 9.934 0 00-2.234 2.484c-.303.48-.527.865-.673 1.157a16.66 16.66 0 01-.312.75l-.438 1c-.146.333-.276.64-.39.922a5.514 5.514 0 00-.203.547c-.063.166-.162.479-.297.937-.136.459-.276.953-.422 1.485l-.406 1.484c-.125.458-.209.781-.25.969l-.125.125-.344 2.156c.062.438.224.86.484 1.266s.589.75.985 1.03c.395.282.864.48 1.406.595zm.032-7.453h-.156c.041-.146.12-.386.234-.72l.36-1.046a39.1 39.1 0 01.375-1.047c.125-.333.218-.573.28-.719.022-.125.12-.37.298-.734.177-.365.38-.745.61-1.14.228-.397.463-.746.702-1.048.24-.302.453-.453.64-.453v.344c0 .042-.046.203-.14.484l-.073.22-.164.492-.09.273c-.126.375-.261.755-.407 1.14-.146.386-.26.693-.344.922-.042.063-.135.224-.281.485-.146.26-.26.453-.344.578a4.375 4.375 0 01-.39.547c-.178.218-.344.432-.5.64-.157.209-.297.39-.422.547l-.188.235zM161.643 15c.25 0 .505-.115.765-.344.26-.229.391-.479.391-.75 0-.27-.094-.442-.281-.515a1.542 1.542 0 00-.563-.11c-.375 0-.635.063-.78.188-.147.125-.22.375-.22.75 0 .208.052.39.157.547.104.156.28.234.53.234zm-.656 14.031c.583 0 1.171-.093 1.765-.281a11.856 11.856 0 001.735-.703 14.429 14.429 0 001.609-.938 30 30 0 001.422-1.015c0-.021.015-.047.047-.078l.078-.078a.61.61 0 00.172-.079.61.61 0 01.172-.078c.062-.02.156-.078.28-.172.126-.093.261-.198.407-.312.146-.115.287-.224.422-.328.135-.104.214-.188.234-.25a.414.414 0 00.172-.282c.01-.104.016-.218.016-.343 0-.292-.089-.495-.266-.61-.177-.114-.4-.172-.672-.172-.208 0-.359.037-.453.11a1.063 1.063 0 00-.234.25c-.063.094-.13.193-.203.297a1.36 1.36 0 01-.328.312c-.396.271-.839.589-1.329.953-.49.365-1 .698-1.53 1-.532.302-1.074.563-1.626.782a4.43 4.43 0 01-1.64.328c-.105 0-.188-.058-.25-.172a1.163 1.163 0 01-.125-.406 3.543 3.543 0 01-.032-.47v-.358c0-.667.078-1.256.235-1.766.156-.51.328-.99.515-1.438.188-.448.36-.895.516-1.343.156-.448.234-.943.234-1.485a1.95 1.95 0 00-.156-.812c-.104-.23-.323-.344-.656-.344-.313 0-.526.052-.64.156-.115.104-.235.323-.36.657A53.528 53.528 0 00159.97 21c-.115.313-.224.604-.328.875a4.21 4.21 0 00-.188.563l-.437 2.78c0 .355.01.75.031 1.188.02.438.094.854.219 1.25s.318.724.578.985c.26.26.64.39 1.14.39zm14.414 0c.27 0 .505-.005.703-.015.198-.01.39-.037.578-.078l.625-.141c.23-.052.51-.13.844-.235.25-.104.64-.255 1.172-.453l1.64-.609c.563-.208 1.089-.406 1.579-.594.49-.187.807-.302.953-.343.52-.23 1.067-.51 1.64-.844a9.176 9.176 0 001.578-1.157c.48-.437.88-.927 1.204-1.468a3.472 3.472 0 00.484-1.813 2.02 2.02 0 00-.11-.64c-.072-.22-.244-.328-.515-.328-.292 0-.51.104-.656.312a3.734 3.734 0 00-.391.734 12.05 12.05 0 00-.312.86 2.35 2.35 0 01-.329.687c-.541.604-1.27 1.183-2.187 1.735a18.498 18.498 0 01-2.922 1.422 23.7 23.7 0 01-3.078.953c-1.02.24-1.906.359-2.656.359-.042 0-.188-.005-.438-.016-.25-.01-.406-.015-.469-.015a8.523 8.523 0 00-.546-.313.656.656 0 01-.36-.468v-.282c0-.125-.005-.25-.015-.375a4.514 4.514 0 01-.016-.375v-.281c0-.667.078-1.24.234-1.719a5.36 5.36 0 01.657-1.343c.28-.417.609-.829.984-1.235.375-.406.781-.87 1.219-1.39a.775.775 0 01.14-.172l.12-.12.02-.021h.126a.853.853 0 01.406.219 8.2 8.2 0 01.297.312c.094.104.203.193.328.266.125.073.271.11.438.11.27 0 .51-.053.718-.157.209-.104.313-.292.313-.563 0-.25-.047-.526-.14-.828a3.412 3.412 0 00-.407-.859c-.177-.27-.38-.5-.61-.688a1.2 1.2 0 00-.78-.28.875.875 0 00-.329.046.591.591 0 00-.187.125 1.488 1.488 0 01-.188.156c-.073.052-.161.11-.265.172-.396-.146-.86-.031-1.391.344s-1.052.906-1.562 1.594c-.51.687-.959 1.51-1.344 2.468-.386.959-.63 1.97-.735 3.032.042.708.13 1.328.266 1.86.135.53.349.978.64 1.343.292.364.683.64 1.173.828.49.188 1.109.281 1.859.281zm21.477 0c.791 0 1.656-.11 2.593-.328a11.408 11.408 0 002.625-.953c.813-.417 1.485-.943 2.016-1.578.531-.636.797-1.37.797-2.203 0-.271-.047-.521-.14-.75-.094-.23-.298-.344-.61-.344-.27 0-.48.104-.625.313-.167.729-.412 1.343-.734 1.843a4.25 4.25 0 01-1.204 1.235 5.711 5.711 0 01-1.671.75c-.636.177-1.36.317-2.172.422-.23-.042-.412-.183-.547-.422a2.316 2.316 0 01-.266-.86 7.15 7.15 0 01-.047-1.078c.01-.385.026-.755.047-1.11.021-.353.042-.666.063-.937.02-.27.03-.468.03-.593a7.451 7.451 0 00-.14-.813 4.965 4.965 0 00-.328-.984 2.511 2.511 0 00-.547-.797 1.009 1.009 0 00-.797-.282c-.687.042-1.26.204-1.718.485-.459.281-.907.682-1.344 1.203l-.156-.344 1.125-2.437 2-3.813c.104-.458.229-.922.375-1.39.146-.47.28-.938.406-1.407.125-.468.23-.937.312-1.406.084-.469.125-.963.125-1.484 0-.23-.01-.526-.03-.89a3.887 3.887 0 00-.204-1.048 2.427 2.427 0 00-.5-.86c-.219-.239-.505-.359-.86-.359-.5 0-.937.172-1.312.516-.375.344-.703.787-.984 1.328a9.409 9.409 0 00-.703 1.828 21.084 21.084 0 00-.453 2 18.61 18.61 0 00-.235 1.844 19.625 19.625 0 00-.062 1.328c-.209 1.5-.386 2.735-.532 3.703a70.974 70.974 0 01-.406 2.453c-.125.667-.234 1.235-.328 1.704a129.06 129.06 0 00-.594 3.14 84.09 84.09 0 00-.39 2.469c0 .27.047.464.14.578.094.115.276.172.547.172.438 0 .745-.115.922-.344.177-.229.292-.51.344-.843.052-.334.078-.688.078-1.063s.042-.698.125-.969c.062-.27.224-.646.484-1.125s.573-.953.938-1.422c.364-.468.75-.875 1.156-1.218.406-.344.807-.516 1.203-.516.125 0 .235.078.328.234.094.157.162.276.203.36 0 .104.021.281.063.531.042.25.078.51.11.781.03.271.057.526.077.766.021.24.032.411.032.515.02.313.02.72 0 1.22-.021.5-.016.994.015 1.484.032.49.14.906.328 1.25.188.343.532.515 1.032.515zm-4.032-13.156l-.156-.156v-.188c0-.104-.005-.219-.015-.344a4.91 4.91 0 01-.016-.406v-.312c0-.563.01-1.156.031-1.781.021-.626.094-1.23.219-1.813a7.074 7.074 0 01.594-1.688c.27-.541.656-1.01 1.156-1.406l.156.313c.021.041.037.177.047.406.01.23.016.385.016.469 0 .25-.026.573-.078.969-.053.395-.12.833-.204 1.312-.083.48-.182.964-.296 1.453-.115.49-.245.953-.391 1.39a6.39 6.39 0 01-.484 1.126c-.178.312-.37.531-.579.656z" fill="#000" fill-rule="nonzero"/></svg>