<svg viewBox="0 0 5966 3255" xmlns="http://www.w3.org/2000/svg"><g fill="#917FEA" fill-rule="evenodd"><path d="M5968 2131.777V2382H-6v-107.458h63.717v-71.382h61.413v57.566h19.96v-23.794h3.838v-35.307h12.282v-26.097h6.142v27.632h12.283v40.68h26.1v7.676h33.01v-34.54h4.606v-11.514h5.374v-48.355h137.412v43.75h8.445v-68.312h29.171s-5.373-29.935 27.636-29.935h63.717l37.616-32.237h11.515v-16.886h6.909v-37.61h7.676v-78.291l3.071 79.058v34.54h7.677v18.421h17.656l36.848 36.843h5.374v19.189h6.141v42.983h14.586v71.382h4.606l9.212-31.47 11.515 29.935h6.141v59.87h19.192V1725.74l30.707-6.14v-4.606h8.444v-38.378l5.374-5.372v45.285l34.545 5.373v-46.053h1.535v46.053l36.849 5.373v-35.307h3.07v36.842l58.343 9.21v359.984l49.899 7.675v44.519h20.727v-28.4l3.838 28.4h4.606v97.479h12.283v19.189h12.282v-22.26h8.445v19.19h15.353v-17.654h35.313v10.746h17.656v-9.979h3.839v4.606h13.818v-46.054l35.312-44.518h46.828v-125.879h21.495v-8.443h109.777v6.14h39.15v172.7h38.384V2102.61l39.151-2.302v-9.979h69.858v-9.21h52.202v-15.351h140.483v29.167h34.545v101.317h26.869v-172.7h64.484v-7.675h13.05v-12.281h82.908v6.14l45.293-3.07v-372.264l30.707-5.373v-11.513h-23.03v-4.606h9.212v-26.096h-7.677v-6.14l39.151-6.909c.768 0 0-12.28 0-12.28l69.09-9.211v-7.676h6.91v-31.47h-2.304V1487.8l1.536-1.535v-20.724h-1.536v-12.28h1.536V1431h2.303v21.492h2.303v10.745h-2.303v20.724l3.838 3.838v25.33h-2.303v28.399h15.353v-31.47l2.303 45.286s21.495-.768 22.263 0v-33.005l2.303 35.307h38.383v9.979h15.354l6.909 6.908h16.12v5.373h-13.817v24.561h16.12v5.373h-16.12v16.119h26.1v591.017h11.515v-409.874s59.879 2.302 59.879 37.61v16.886h21.494v4.605h-4.606v19.957h12.283v9.978h3.838v16.886h6.142v10.746h3.838v115.133l72.929-4.605v-19.189h117.453v11.513l96.726-6.14v18.421h34.545v-19.189h23.798v19.19h7.677v.767l132.039 6.14v-208.007h56.04v-2.303h-3.839v-2.302h22.263v2.302h-3.839v6.908h8.445v11.514h7.676v-8.444h6.142s.767 9.211 0 9.211h6.141v4.605h5.374v-7.675s.768.767 1.535 0c.768-.768 0-20.724 0-20.724h6.142v-30.702h3.07v-10.746h1.536v41.448h13.818v-3.838h3.838v-21.491l.768-.768v25.33h49.898v40.68l3.838 3.837v78.291l108.242 16.886v-19.189l4.606-4.605h30.707v-26.097l2.303 27.632h16.888v-6.908h7.677v7.676h9.98v-31.47l2.303 31.47h26.1v-5.373h.768v-20.724l4.606 28.4h24.565v38.377h12.283v20.724h3.07v39.145h3.072v46.821h4.606v17.654h16.888l5.374 5.373v6.908h7.677v36.075h33.01v-166.56l29.17-3.07v-15.35l35.314-3.839h81.373v19.957h30.706v-17.654h13.818l4.606-48.356 13.818-1.535 76.767 2.303 5.374 47.588h14.586l6.141-42.983h12.283v-94.41h29.939l27.636 3.839v-79.826s29.939-7.676 88.282-4.605l22.262 5.373h27.636l10.748 4.605v219.52l27.636 2.303v-44.518h11.515v-29.935l22.262-.767v-23.794s8.445-2.303 18.424-2.303v-38.378h12.283l46.06-33.005 47.596 33.005h12.282v38.378h16.889v31.47h69.858v-9.979l6.909 9.979h69.09v18.421h14.586v-21.492h17.656l6.142-18.42h79.07l8.444 14.583h15.353v118.97h-10.747v89.037h17.656v-10.746h9.212v-28.4h6.142v-9.21h7.676V1958.31h22.263v-19.189h92.12v22.26h23.798v175.77h19.191v6.14h6.91v29.167h10.747v-220.289s2.303-6.907 19.192-6.907v-17.654l13.818-5.373h56.807v24.562h19.96v41.448h27.636v-88.27l14.585-6.14h23.798l13.05-3.837v-10.746l11.515-2.303h17.657v-14.583l2.303 3.837v-5.372l3.07 6.14v9.21h10.748v-9.978h6.909v-16.118h6.141v-12.281l3.07 13.048h35.314l1.535-4.605v5.373h7.677v6.14h-4.606v20.724h4.606v2.303h-4.606v16.119h29.939l9.98 9.978v239.477h49.13v39.913h13.818v-62.94l-3.07-3.07 2.303-2.303s-.768-41.448 0-41.448c.767 0-4.606-4.605-4.606-4.605h5.373v-14.584h2.303v-10.745l6.142-13.816v-46.821l-5.374-8.443v-2.303h3.07v-4.605h4.607v-4.606l-3.071-4.605v-7.675h4.606l16.889-55.264h3.07v-13.049l3.839 12.281h2.303l4.606 16.119h127.433l7.677 7.675h13.818v30.702l6.14 6.14v113.599h8.445v8.443h16.121l13.818-8.443h30.707l11.515 7.676v19.188h9.98v19.19h9.212v24.561l35.313 23.027h6.909v21.491h14.585v20.724h10.748v-92.874l9.212-6.908h5.373v-3.07h-4.606v-23.794l8.445-4.606h67.555v23.795h-2.303v5.372h15.353v112.83h13.05v6.141h13.818v3.07h2.303v13.049h7.677v-15.351h15.354v-165.024h211.876v133.554s13.05-.767 13.05 19.189h6.91v14.584h3.07v-10.746h6.91v8.443l24.565-5.373v-24.562h119.756v29.935h19.96v4.605h14.585v-65.242h13.818v-9.978h16.889v-13.816h19.96v-10.746h26.1v1.535z" fill-rule="nonzero"/><path d="M-8549.975 2352h23059.95v919h-23059.95z"/></g></svg>