<svg viewBox="0 0 5966 3255" xmlns="http://www.w3.org/2000/svg" xmlns:xlink="http://www.w3.org/1999/xlink"><defs><path d="M107.117 289.956c-14.566 0-81.553-26.8-94.448-48.63-12.895-21.829-20.47-141.849 0-195.744 20.47-53.896 184.94-56.292 210.408-26.504 16.98 19.858 26.797 60.102 29.454 120.73-11.788 58.173-21.606 92.012-29.454 101.519-11.77 14.26-101.394 48.63-115.96 48.63z" id="a"/></defs><g fill="none" fill-rule="evenodd"><path d="M-495.409 3290.025c3335.706-461.595 5572.11-694.868 6709.211-699.818 1137.102-4.95 896.938 493.136-720.49 1494.258l-5988.72-794.44z" fill="#423873"/><path d="M4264.42 1877.406c1.929 38.02 1.929 58.48 0 61.38-1.928 2.9 22.168 5.503 72.29 7.81-8.031-53.085-12.916-83.425-14.652-91.017-1.737-7.592-20.95-.317-57.638 21.827z" fill="#FFC7B0"/><g transform="translate(4143 1548.833)"><ellipse fill="#FFC7B0" cx="18" cy="201.667" rx="18" ry="21.5"/><ellipse fill="#FFC7B0" cx="271.5" cy="215.667" rx="30.5" ry="25.5"/><g transform="translate(21.583 50.296)"><mask id="b" fill="#fff"><use xlink:href="#a"/></mask><use fill="#FFC7B0" xlink:href="#a"/><path d="M4.737 65.94c1.57 57.581 2.354 90.725 2.354 99.43 0 13.06 2.436 14.61 12.93 28.906 6.717 9.15 39.92 6.595 72.904 4.132l3.09-.23c17.502-1.3 34.707-2.47 47.61-1.742 16.406.925 51.455 2.906 69.94-13.435 6.683-5.907 12.33-21.346 16.944-46.315 14.682-5.828 22.576-7.05 23.683-3.664 1.66 5.078-21.284 95.01-28.977 109.252-7.692 14.241-105.26 47.682-118.087 49.694-12.829 2.011-70.83-26.388-92.711-44.637C2.468 237.366-3.296 194.603 0 119.83c.485-11.01 2.064-28.973 4.737-53.89zm132.01 142.825c-13.502 0-14.741 5.587-46.051 5.587-31.31 0-13.075 45.25 8.664 45.25 21.74 0 62.595-5.233 62.595-21.906s-11.705-28.931-25.207-28.931z" fill="#765A56" opacity=".614" mask="url(#b)"/></g><g fill="#765A56"><path d="M239.917 202.608c13.85-8.916 25.028-13.374 33.535-13.374 12.76 0 62.427-137.813-20.677-127.517-55.403 6.864-63.254 15.772-23.554 26.724-7.13 11.069-7.13 22.049 0 32.94 10.696 16.338 18.27 16.338 18.27 28.53 0 8.128-2.525 25.694-7.574 52.697z"/><path d="M248.298 68.873c0-18.74 10.681-26.641-8.512-44.155C220.594 7.204 199.54-5.245 110.093 2.198 50.46 7.157 13.763 57.181 0 152.27c24.755-19.09 39.5-32.344 44.232-39.76 7.1-11.125-8.232 26.08-16.366 31.06-8.135 4.982 69.795-17.447 76.134-33.883 6.34-16.437-6.13 33.884-22.041 36.767-15.912 2.884 76.258.718 98.932-47.801 22.675-48.52-25.102 84.207 11.82 17.844 10.571-19 28.942-22.323 36.51-28.056 18.866-14.29 19.077-6.195 19.077-19.568z"/></g><path d="M56.521 210.61c-1.012-2.085-1.012-28.253 13.758-32.058 14.77-3.804 21.186 28.36 18.731 30.968-1.636 1.739-3.347 1.479-5.13-.78-1.307-14.611-4.753-22.681-10.34-24.21-5.586-1.53-9.912 7.163-12.976 26.08-2.02 1.391-3.368 1.391-4.043 0zM158.33 210.553c0-5.015 1.996-29.816 14.247-31.04.266-.027 3.227.002 3.492 0 11.91-.093 19.325 24.18 17.53 28.117-1.835 4.024-4.435 1.113-4.435-1.075 0-1.82-5.361-18.503-11.985-21.255-1.339-.555-4.5.142-5.727.89-7.296 4.458-7.924 19.71-8.76 24.363-.835 4.654-4.361 5.015-4.361 0z" fill="#77605B"/><path d="M121.618 182.043c0-.526-4.283 22.802-20.53 36.82-16.246 14.018 23.074 28.412 29.78 14.615 6.707-13.797-3.483-48.931-6.366-51.435-2.884-2.505-2.884.525-2.884 0z" fill="#E0927B"/><path d="M127.8 288.511c5.001 3.09 32.324 12.623 36.826-13.51 2.036-11.818-3.461-2.388-16.369 5.627-9.679 6.01-25.458 4.793-20.457 7.883z" fill="#973B3E"/><path d="M39.988 162.94c14.582-7.319 41.867-15.698 49.533-10.466 5.11 3.489 5.11 6.977 0 10.465-10.86.493-18.252 1.273-22.173 2.34-13.342 3.628-19.69 8.961-21.197 8.961-3.257 0-20.745-3.983-6.163-11.3zM159.33 148.091c-9.241.154-16.59 7.994-3.961 13.085 12.63 5.09 21.359-1.37 44.403 11.064 3.39 1.83-1.004-.385 4.399 1.95 2.153.93 7.762-2.335 8.744-3.604 2.472-3.193-.583-7.218-8.744-12.091-13.369-7.983-35.598-10.558-44.84-10.404z" fill="#765A56"/></g><path d="M4225.063 2257.437c-30.663 263.74-51.69 412.873-63.08 447.398-17.084 51.787 57.242 17.441 67.784 0 10.542-17.442 62.387-335.567 74.257-346.627 11.87-11.06 37.268-9.264 48.092 7.442 7.217 11.138 18.437 124.2 33.661 339.185 39.2 5.495 58.799 3.8 58.799-5.085 0-13.329-9.104-416.34-15.118-442.313-4.01-17.315-72.14-17.315-204.395 0z" fill="#0F0F0F"/><path d="M4162.667 2702.1c0 9.33 60.272 6.044 66.98 0 4.16-3.749 6.293 3.139 3.584 18.885-1.66 9.644-2.582 16.07-6.53 18.6-10.396 6.658-113.47 12.875-122.979 0-4.077-5.522 4.554-18.096 16.924-21.962 8.936-2.794 19.15-5.403 26.82-6.193 6.473-.667 11.098.793 11.978-2.621 1.696-6.578 3.223-7.803 3.223-6.71zM4385.534 2696.345c36.673 3.557 55.943 3.005 57.811-1.656 2.803-6.99 2.32 4.273 3.403 4.822 1.082.55 64.363 9.082 64.363 24.76 0 15.676-31.392 14.593-43.342 14.162-7.967-.288-27.628-1.039-58.985-2.253-13.875-1.65-21.054-5.62-21.539-11.91-.246-3.2-.633-7.778-1.033-12.406-.257-2.98-.483-8.152-.678-15.519z" fill="#FFF"/><g><path d="M4196.71 1937.925c-18.545 7.69-74.343 48.002-99.452 42.37-25.109-5.633-81.521-26.85-97.981-42.37-10.973-10.347-10.973 7.245 0 52.776 49.091 40.428 79.696 60.642 91.815 60.642 18.18 0 121.408-12.712 126.527-30.265 5.119-17.552-2.366-90.842-20.91-83.153zM4380.896 1926.583c48.808 10.315 139.446 73.818 144.756 125.27 5.309 51.454-28.593 132.036-98.945 171.314-46.902 26.186-47.655 4.037-2.26-66.447 29.73-33.317 43.83-59.556 42.301-78.718-1.529-19.162-24.408-36.863-68.638-53.103-44.014-72.42-49.752-105.193-17.214-98.316z" fill="#FFF"/><g transform="translate(3946 1871.496)"><path d="M57.07 70.784c1.005-14.736-1.642-26.928-7.94-36.577-.697-1.067-1.003-2.882-1.239-3.948-.486-2.202-.346-3.673-.448-6.044C46.926 12.159 52.254 0 35.755 0c-7.603 0-6.631 8.475-6.136 12.89 1.169 10.427 6.45 22.527 3.924 25.626-3.636 4.46-25.276 61.916-18.411 67.118 4.954 3.753 15.229 13.225 27.385 14.099 4.69.337 9.349.714 14.553-2.972 1.125-.796 2.908-5.954 3.173-7.853.926-6.647 1.468-16.696 1.783-20.973.396-5.362-1.256-11.079-4.956-17.151z" fill="#E6B29C"/><ellipse fill="#FFC7B0" cx="25.5" cy="50.004" rx="24.5" ry="10.5"/><ellipse fill="#FFC7B0" cx="26" cy="68.504" rx="26" ry="12"/><ellipse fill="#FFC7B0" cx="25.5" cy="86.504" rx="20.5" ry="12"/><ellipse fill="#FFC7B0" cx="25.5" cy="100.004" rx="15.5" ry="10.5"/></g><path d="M4453.585 2204.306c2.704 8.98 6.09 35.328-32.275 17.664-25.576-11.776-24.256-37.984 3.96-78.623 2.138 1.92 4.818 10.419 8.04 25.495 1.58 7.393 5.177 14.965 9.279 20.819 4.102 5.853 8.29 5.665 10.996 14.645z" fill="#E6B29C"/><path d="M4191.596 1941.764c5.637 33.5 26.392 165.057 22.918 197.708-3.473 32.65 1.573 133.28 10.519 146.457 1.689 2.488 8.122 10.172 19.034 16.22a63.168 63.168 0 0024.564 7.662c59.88 5.89 161.275 1.671 163.925-18.242 3.8-28.558-6.202-324.286-42.793-360.244-10.963-10.773-37.211-11.189-53.052-15.471-8.65-2.338-3.487 5.431-10.173 11.41-3.097 2.77-18.046 8.812-26.026 8.812-10.345 0-22.595-5.355-27.979-8.811-7.735-4.965-6.267-12.936-14.383-9.113-9.756 4.596-67.632 17.206-66.554 23.612z" fill="#FFF"/></g><path d="M3831.81 2663.819c7.048.918 12.131-3.729 17.456-5.053 17.61-4.38 39.61.959 52.826 6.429 8.51 3.524 17.787 9.792 27.562 7.352 15.74-3.934 11.493-30.215 25.724-36.75 3.493 4.01 2.513 12.494 6.43 16.076 7.576-2.46 24.314 2.265 30.778-.457 4.957-2.088 2.467-9.507 7.809-11.484 4.126 3.654 2.157 8.908 2.756 13.321.9 6.646 2.785 13.079 5.053 19.294 3.593 9.841 7.33 20.278 2.756 31.234-3.635 8.71-11.425 14.441-16.537 22.051 3.798 3.252 10.29.446 16.537 0 10.573-.758 22.254.297 29.858 2.754 9.174 1.732 12.457 13.815 4.135 19.753-10.6 7.564-34.085 1.795-51.448 2.756-15.154.838-28.266 6.58-43.18 5.053-4.66-.477-10.577-3.453-15.618-4.135-11.253-1.523-27.6-1.448-40.883-.916-4.716.187-11.157.036-12.862.916-2.433 1.258-2.65 6.872-4.594 8.269-4.98 3.577-15.926.89-23.886.917-15.347.057-37.14 2.754-50.07-.917-18.811-5.346-29.585-29.795-23.887-53.745 1.545-6.494 5.419-13.17 8.728-18.376 3.131-4.923 10.169-12.298 10.565-16.537.375-4.018-3.175-12.064-4.593-17.456-6.799-25.852-12.29-54.032-10.566-88.656.894-17.934 4.99-34.82 10.106-50.529 5.34-16.395 6.483-35.648 4.134-55.123-1.276-10.58-8.622-24.907-4.134-34.452 5.516-11.729 24.446-7.212 31.237 0 6.543 6.95 9.945 16.493 11.024 27.562 4.383 44.913-18.403 70.597-21.59 108.867-2.802 33.662 3.643 62.607 11.484 86.82 1.671 5.163 2.073 11.642 6.89 15.162z" fill="#0A0A0A"/></g></svg>